inDegrees=no
num_controls=7
num_derivatives=13
num_iterations=206
num_multipliers=7
num_parameters=0
num_slacks=7
num_states=26
objective=5.557064
objective_accelerations=0.401551
objective_balance=0.054375
objective_effort=0.380142
objective_height=4.696823
objective_ligament=0.024173
solver_duration=2165.325720
status=Solve_Succeeded
success=true
DataType=double
version=3
OpenSimVersion=4.4-2022-07-23-0e9fedc
endheader
time	/jointset/ground_pelvis/pelvis_tilt/value	/jointset/ground_pelvis/pelvis_tx/value	/jointset/ground_pelvis/pelvis_ty/value	/jointset/hip_l/hip_flexion_l/value	/jointset/hip_l/hip_adduction_l/value	/jointset/hip_l/hip_rotation_l/value	/jointset/back/lumbar_extension/value	/jointset/patellofemoral_l/patellar_flexion_l/value	/jointset/knee_l/knee_flexion_l/value	/jointset/knee_l/knee_adduction_l/value	/jointset/knee_l/knee_rotation_l/value	/jointset/ankle_l/ankle_angle_l/value	/jointset/subtalar_l/subtalar_angle_l/value	/jointset/ground_pelvis/pelvis_tilt/speed	/jointset/ground_pelvis/pelvis_tx/speed	/jointset/ground_pelvis/pelvis_ty/speed	/jointset/hip_l/hip_flexion_l/speed	/jointset/hip_l/hip_adduction_l/speed	/jointset/hip_l/hip_rotation_l/speed	/jointset/back/lumbar_extension/speed	/jointset/patellofemoral_l/patellar_flexion_l/speed	/jointset/knee_l/knee_flexion_l/speed	/jointset/knee_l/knee_adduction_l/speed	/jointset/knee_l/knee_rotation_l/speed	/jointset/ankle_l/ankle_angle_l/speed	/jointset/subtalar_l/subtalar_angle_l/speed	/forceset/tau_hip_flexion_l	/forceset/tau_hip_adduction_l	/forceset/tau_hip_rotation_l	/forceset/tau_knee_flexion_l	/forceset/tau_ankle_angle_l	/forceset/tau_subtalar_angle_l	/forceset/tau_lumbar_extension	lambda_cid13_p0	lambda_cid13_p1	lambda_cid13_p2	lambda_cid13_p3	lambda_cid13_p4	lambda_cid13_p5	lambda_cid14_p0	/jointset/ground_pelvis/pelvis_tilt/accel	/jointset/ground_pelvis/pelvis_tx/accel	/jointset/ground_pelvis/pelvis_ty/accel	/jointset/hip_l/hip_flexion_l/accel	/jointset/hip_l/hip_adduction_l/accel	/jointset/hip_l/hip_rotation_l/accel	/jointset/back/lumbar_extension/accel	/jointset/patellofemoral_l/patellar_flexion_l/accel	/jointset/knee_l/knee_flexion_l/accel	/jointset/knee_l/knee_adduction_l/accel	/jointset/knee_l/knee_rotation_l/accel	/jointset/ankle_l/ankle_angle_l/accel	/jointset/subtalar_l/subtalar_angle_l/accel	gamma_cid13_p0	gamma_cid13_p1	gamma_cid13_p2	gamma_cid13_p3	gamma_cid13_p4	gamma_cid13_p5	gamma_cid14_p0
1.5	0.1089986793931465	0.04391523442748881	0.8823253335952994	0.4330231144783527	-0.3280051948849635	-0.151696124472309	-0.7696083114262482	0.7060168455139951	0.7060168455140202	-0.1261925006406051	-0.1745327461924632	0.2169059693244639	0.04252507173506313	0.05524641489266224	0.1310100185035003	0.2980036052675287	-1.356432783651442	0.1078442317838853	-0.6062346572888305	0.8501396217166993	-1.806542296874547	-1.806542296874579	-0.1003531057149423	9.046418208920525e-06	-0.6195513596253069	-0.1058791397533555	-0.1224925378487116	0.03017202673967017	-0.003875708757813942	-0.2272321194569574	-0.001447795040080227	0.03662064753830443	0.232524160079839	-42.71013930353934	-11.80720275298882	5.290103326494071	0.5904330750775928	-674.632641428689	-77.92614743314978	-17.78649930150547	-0.293839417286639	0.3207876974120881	-0.5044529373729594	-0.2048799864645096	0.4110506392870749	-0.334659138239737	1.498904579968524	-0.8553530685333538	-0.8553530685333764	-0.2057215456736561	0.02613964676684067	-0.3314017000330398	0.4200765934940667	1.053548475320808e-07	1.231126469834733e-06	-4.234601832177423e-07	1.287304298385539e-07	1.636426408124038e-07	7.754091652484705e-07	1.39477325204833e-07
1.51	0.1095365173537671	0.04524123800608729	0.8852795732578493	0.4194499369256708	-0.3269066098756065	-0.1577756264295494	-0.7610332186293925	0.6879109146636305	0.6879109146636935	-0.127206576834292	-0.1745327540830372	0.2106946131462322	0.04148692749660757	0.05232443843295634	0.1341746331123995	0.2927880439132576	-1.358033862529336	0.1118734552115513	-0.6095944890934956	0.8647549769745259	-1.814398438187733	-1.814398438187734	-0.1024595136394319	-7.264163772448404e-06	-0.6226244626075712	-0.1017261279003327	-0.1174436336975803	0.02886505025861717	-0.003911423562065456	-0.2239695466310614	0.001552960249729281	0.03595411268999217	0.2271222644570912	-41.61705501533989	-11.72305730348386	5.292610127786455	0.3061458121083193	-671.6303249791082	-77.84370802382689	-18.39333277402104	-0.2908913993343711	0.3119214219150301	-0.5385281477961034	-0.1123981619676738	0.3988650400940631	-0.3258304786109343	1.424256896777787	-0.7139558069537715	-0.7139558069492096	-0.2125201063259126	-0.01504995604134935	-0.2809136024034946	0.4162769275821234	8.306820036018231e-08	1.290185119884464e-06	-3.4088001818672e-07	1.516618027268622e-07	1.285224393254414e-07	7.541122866427137e-07	1.345285672621546e-07
1.52	0.1100452326219885	0.0465984123466321	0.8881799732241882	0.4058658133195073	-0.3257677312628557	-0.163886563760243	-0.7523156911003406	0.6697337801712865	0.6697337801713844	-0.1282416010453226	-0.1745328317885049	0.2044553961371617	0.04049098606595736	0.04942187641237194	0.1372441708927661	0.2872356660253065	-1.358621994347863	0.1159029524627267	-0.6125217319794023	0.8786265681558695	-1.820783025270621	-1.820783025270592	-0.1045427091834935	-4.916560182769029e-06	-0.625123525793051	-0.09743857819228061	-0.1123947295464567	0.02755807377756197	-0.003947138366327927	-0.220706973805168	0.004553715539537402	0.03528757784167686	0.2217203688343387	-40.5273615576392	-11.63926430599903	5.296254603810247	0.007708782430892183	-668.6979664644914	-77.79145839170697	-18.98372986976958	-0.2899565294622761	0.3017723317055157	-0.5718162441089603	-0.002290574591264131	0.4111054039889731	-0.2481413544880419	1.350151764671968	-0.5610422224737461	-0.5610422224737495	-0.2010790695880305	0.02987128388106421	-0.2165937406761959	0.44698416449992	7.384686371896225e-08	1.325857242128107e-06	-3.205712574337096e-07	1.634114135756606e-07	1.127457879142913e-07	7.538657008243598e-07	1.353841829958975e-07
1.53	0.11052498010834	0.04798576642217655	0.8910232074931715	0.3922809880983483	-0.3245886130191867	-0.1700245836434202	-0.7434632161790498	0.6515002687745963	0.6515002687745959	-0.1292973860499605	-0.1745328209538522	0.1981940793638168	0.03953853216360888	0.04653071843231033	0.1402062614984648	0.2813600103339933	-1.358165025727212	0.1199188255582495	-0.615015451067602	0.891734133232692	-1.825661672365549	-1.825661672365527	-0.1066013948867834	4.6302409464935e-06	-0.6270406167964538	-0.09303058486440972	-0.1072810998821361	0.02617380239428706	-0.004024201033272605	-0.2175268686923405	0.007578576600368884	0.03457321514086573	0.2162757302629025	-39.44078133230413	-11.53055255112368	5.291811201047183	-0.2502259349489117	-665.8852681145381	-77.72175681839046	-19.55314596142887	-0.2882335329187803	0.2904026592648489	-0.6030928315606218	0.09638944275288817	0.3964596926628832	-0.2398290855788739	1.270916448823354	-0.412667931011681	-0.4126679310127135	-0.2061427015295194	-0.0139293099495585	-0.164346768554051	0.4407835035351771	7.850741951658783e-08	1.336681178577782e-06	-3.664258637260861e-07	1.632804022574799e-07	1.175216584586915e-07	7.759850510926213e-07	1.424069457608378e-07
1.54	0.110975908394765	0.04940213645063064	0.8938061546852579	0.3787060723358689	-0.3233694097584972	-0.1761855090973972	-0.734483694093063	0.6332256925113539	0.6332256925112564	-0.1303733337877963	-0.1745327997887948	0.1919165756827618	0.03863077351186001	0.04365803642661378	0.1430473614746949	0.2751782506459535	-1.356640102612181	0.1239199558669291	-0.6171028461395186	0.9040360010949471	-1.828995998580851	-1.828995998580836	-0.1085752558232746	-2.850485060550162e-06	-0.6283609073351255	-0.08849952807235843	-0.102167470217817	0.02478953101101688	-0.004101263700210784	-0.2143467635795131	0.01060343766120199	0.0338588524400608	0.2108310916914638	-38.35851185830143	-11.42213879073218	5.288618646022909	-0.5219346793012329	-663.1572515068054	-77.68647799380065	-20.09800801885758	-0.2862613345891944	0.2775742058117556	-0.6330370434542655	0.2113003242845104	0.4081568466203361	-0.1668765512313809	1.189012321758528	-0.2521780465485194	-0.2521780465485216	-0.1841141162282921	0.0264657784538231	-0.09723364772998905	0.4715968573359935	9.15051335474715e-08	1.361493063422073e-06	-4.509991659893176e-07	1.613618952155078e-07	1.318172359912073e-07	8.26742429422758e-07	1.553616297706998e-07
